# xmcd CD database file
#
# Track frame offsets:
#	150
#	19140
#	37235
#
# Disc length: 728 seconds
#
# Revision: 0
# Processed by: cddbd v1.5.1PL0 Copyright (c) Steve Scherf et al.
# Submitted via: CDex 1.51
#
DISCID=2102d603
DTITLE=hal - カフェ☆レーサー
DYEAR=2001
DGENRE=Rock
TTITLE0=カフェ☆レーサー
TTITLE1=一人っ子
TTITLE2=HONEY KISS
EXTD=YEAR: 2001
EXTT0=
EXTT1=
EXTT2=
PLAYORDER=
